<svg width="212" height="98" viewBox="0 0 212 98" fill="none" xmlns="http://www.w3.org/2000/svg">
<path d="M57.1211 7.40625V33H50.9512V7.40625H57.1211ZM67.0703 18.0586V22.8047H55.3633V18.0586H67.0703ZM68.0723 7.40625V12.1699H55.3633V7.40625H68.0723ZM76.6152 13.9805V33H70.6738V13.9805H76.6152ZM70.3223 9.07617C70.3223 8.23242 70.627 7.54102 71.2363 7.00195C71.8457 6.46289 72.6367 6.19336 73.6094 6.19336C74.582 6.19336 75.373 6.46289 75.9824 7.00195C76.5918 7.54102 76.8965 8.23242 76.8965 9.07617C76.8965 9.91992 76.5918 10.6113 75.9824 11.1504C75.373 11.6895 74.582 11.959 73.6094 11.959C72.6367 11.959 71.8457 11.6895 71.2363 11.1504C70.627 10.6113 70.3223 9.91992 70.3223 9.07617ZM92.2246 13.9805H97.6035V32.2617C97.6035 34.0195 97.1992 35.5078 96.3906 36.7266C95.582 37.957 94.4512 38.8887 92.998 39.5215C91.5566 40.166 89.8691 40.4883 87.9355 40.4883C87.0801 40.4883 86.207 40.377 85.3164 40.1543C84.4258 39.9434 83.5938 39.627 82.8203 39.2051C82.0469 38.7832 81.3965 38.2617 80.8691 37.6406L83.3477 34.1602C83.8281 34.6992 84.4316 35.1562 85.1582 35.5312C85.8848 35.918 86.7402 36.1113 87.7246 36.1113C88.5801 36.1113 89.2949 35.959 89.8691 35.6543C90.4551 35.3496 90.9004 34.9043 91.2051 34.3184C91.5098 33.7441 91.6621 33.0469 91.6621 32.2266V18.4805L92.2246 13.9805ZM79.5859 23.7188V23.3496C79.5859 21.9082 79.7617 20.5957 80.1133 19.4121C80.4766 18.2168 80.9922 17.1914 81.6602 16.3359C82.3398 15.4688 83.1602 14.8008 84.1211 14.332C85.082 13.8633 86.166 13.6289 87.373 13.6289C88.6738 13.6289 89.7402 13.8809 90.5723 14.3848C91.416 14.877 92.0898 15.5684 92.5938 16.459C93.1094 17.3496 93.5078 18.3926 93.7891 19.5879C94.082 20.7715 94.3281 22.0488 94.5273 23.4199V23.8594C94.3281 25.1484 94.0527 26.3672 93.7012 27.5156C93.3613 28.6523 92.916 29.6602 92.3652 30.5391C91.8145 31.418 91.123 32.1094 90.291 32.6133C89.4707 33.1055 88.4863 33.3516 87.3379 33.3516C86.1426 33.3516 85.0645 33.1113 84.1035 32.6309C83.1543 32.1504 82.3398 31.4766 81.6602 30.6094C80.9922 29.7422 80.4766 28.7227 80.1133 27.5508C79.7617 26.3789 79.5859 25.1016 79.5859 23.7188ZM85.5098 23.3496V23.7188C85.5098 24.4336 85.5742 25.0957 85.7031 25.7051C85.8438 26.3145 86.0547 26.8535 86.3359 27.3223C86.6172 27.7793 86.9629 28.1367 87.373 28.3945C87.7949 28.6523 88.2871 28.7812 88.8496 28.7812C89.7051 28.7812 90.3965 28.5996 90.9238 28.2363C91.4512 27.873 91.832 27.3574 92.0664 26.6895C92.3008 26.0215 92.4004 25.2363 92.3652 24.334V22.9453C92.3887 22.1719 92.3359 21.4922 92.207 20.9062C92.0781 20.3086 91.873 19.8105 91.5918 19.4121C91.3223 19.0137 90.959 18.7148 90.502 18.5156C90.0566 18.3047 89.5176 18.1992 88.8848 18.1992C88.334 18.1992 87.8477 18.3281 87.4258 18.5859C87.0039 18.8438 86.6523 19.207 86.3711 19.6758C86.0898 20.1328 85.873 20.6777 85.7207 21.3105C85.5801 21.9316 85.5098 22.6113 85.5098 23.3496ZM106.99 18.0059V33H101.066V13.9805H106.621L106.99 18.0059ZM106.27 22.8398L104.916 22.875C104.916 21.5391 105.074 20.3086 105.391 19.1836C105.707 18.0586 106.176 17.0801 106.797 16.248C107.418 15.416 108.18 14.7715 109.082 14.3145C109.996 13.8574 111.051 13.6289 112.246 13.6289C113.078 13.6289 113.834 13.7578 114.514 14.0156C115.193 14.2617 115.779 14.6543 116.271 15.1934C116.764 15.7207 117.139 16.4121 117.396 17.2676C117.666 18.1113 117.801 19.125 117.801 20.3086V33H111.877V21.0645C111.877 20.2559 111.783 19.6465 111.596 19.2363C111.42 18.8262 111.162 18.5508 110.822 18.4102C110.482 18.2695 110.066 18.1992 109.574 18.1992C109.059 18.1992 108.596 18.3164 108.186 18.5508C107.775 18.7852 107.424 19.1133 107.131 19.5352C106.85 19.9453 106.633 20.4316 106.48 20.9941C106.34 21.5566 106.27 22.1719 106.27 22.8398ZM117.133 22.8398L115.48 22.875C115.48 21.5391 115.627 20.3086 115.92 19.1836C116.225 18.0586 116.676 17.0801 117.273 16.248C117.883 15.416 118.639 14.7715 119.541 14.3145C120.443 13.8574 121.492 13.6289 122.688 13.6289C123.555 13.6289 124.352 13.7578 125.078 14.0156C125.805 14.2734 126.432 14.6895 126.959 15.2637C127.486 15.8379 127.896 16.5996 128.189 17.5488C128.482 18.4863 128.629 19.6465 128.629 21.0293V33H122.688V21.0293C122.688 20.2441 122.594 19.6523 122.406 19.2539C122.23 18.8438 121.973 18.5684 121.633 18.4277C121.293 18.2754 120.889 18.1992 120.42 18.1992C119.857 18.1992 119.371 18.3164 118.961 18.5508C118.551 18.7852 118.205 19.1133 117.924 19.5352C117.654 19.9453 117.455 20.4316 117.326 20.9941C117.197 21.5566 117.133 22.1719 117.133 22.8398ZM141.9 28.2188V20.3789C141.9 19.8398 141.824 19.377 141.672 18.9902C141.52 18.6035 141.279 18.3047 140.951 18.0938C140.623 17.8711 140.184 17.7598 139.633 17.7598C139.188 17.7598 138.807 17.8359 138.49 17.9883C138.174 18.1406 137.934 18.3691 137.77 18.6738C137.605 18.9785 137.523 19.3652 137.523 19.834H131.6C131.6 18.9551 131.793 18.1406 132.18 17.3906C132.578 16.6289 133.141 15.9668 133.867 15.4043C134.605 14.8418 135.484 14.4082 136.504 14.1035C137.535 13.7871 138.684 13.6289 139.949 13.6289C141.461 13.6289 142.809 13.8809 143.992 14.3848C145.188 14.8887 146.131 15.6445 146.822 16.6523C147.514 17.6484 147.859 18.9023 147.859 20.4141V28.2012C147.859 29.4434 147.93 30.3867 148.07 31.0312C148.211 31.6641 148.41 32.2207 148.668 32.7012V33H142.727C142.445 32.4141 142.234 31.6992 142.094 30.8555C141.965 30 141.9 29.1211 141.9 28.2188ZM142.621 21.3809L142.656 24.5449H140.037C139.486 24.5449 139.018 24.6211 138.631 24.7734C138.256 24.9258 137.951 25.1367 137.717 25.4062C137.494 25.6641 137.33 25.957 137.225 26.2852C137.131 26.6133 137.084 26.959 137.084 27.3223C137.084 27.6738 137.166 27.9902 137.33 28.2715C137.506 28.541 137.74 28.752 138.033 28.9043C138.326 29.0566 138.654 29.1328 139.018 29.1328C139.674 29.1328 140.23 29.0098 140.688 28.7637C141.156 28.5059 141.514 28.1953 141.76 27.832C142.006 27.4688 142.129 27.1289 142.129 26.8125L143.43 29.2383C143.195 29.707 142.926 30.1816 142.621 30.6621C142.328 31.1426 141.959 31.5879 141.514 31.998C141.08 32.3965 140.547 32.7246 139.914 32.9824C139.281 33.2285 138.514 33.3516 137.611 33.3516C136.439 33.3516 135.361 33.1113 134.377 32.6309C133.404 32.1504 132.625 31.4824 132.039 30.627C131.453 29.7598 131.16 28.7637 131.16 27.6387C131.16 26.6543 131.336 25.7754 131.688 25.002C132.051 24.2285 132.596 23.5723 133.322 23.0332C134.049 22.4941 134.975 22.084 136.1 21.8027C137.225 21.5215 138.549 21.3809 140.072 21.3809H142.621Z" fill="#445964"/>
<path d="M32.8107 65.6402L21.1834 58.8588C19.2199 57.7137 16.7802 57.7138 14.8166 58.8588L3.1894 65.6402C1.22207 66.7874 0 68.927 0 71.2239V84.776C0 87.0729 1.22207 89.2125 3.18932 90.3598L14.8166 97.1411C16.7805 98.2865 19.2201 98.2861 21.1834 97.1411L32.8106 90.3598C34.7779 89.2125 36 87.0729 36 84.776V71.2239C36 68.9271 34.7779 66.7875 32.8107 65.6402ZM32.9099 84.776C32.9099 85.9592 32.2804 87.0613 31.267 87.6522L19.6397 94.4335C18.6282 95.0235 17.3717 95.0235 16.3602 94.4335L4.73292 87.6522C3.71959 87.0612 3.09013 85.9592 3.09013 84.776V71.2239C3.09013 70.0409 3.71959 68.9388 4.733 68.3478L16.3602 61.5665C17.3718 60.9765 18.6287 60.9767 19.6398 61.5665L31.2671 68.3477C32.2804 68.9388 32.9099 70.0408 32.9099 71.2239V84.776Z" fill="#445964"/>
<path d="M76.8107 65.6402L65.1834 58.8588C63.2199 57.7137 60.7802 57.7138 58.8166 58.8588L47.1894 65.6402C45.2221 66.7874 44 68.927 44 71.2239V84.776C44 87.0729 45.2221 89.2125 47.1893 90.3598L58.8166 97.1411C60.7805 98.2865 63.2201 98.2861 65.1834 97.1411L76.8106 90.3598C78.7779 89.2125 80 87.0729 80 84.776V71.2239C80 68.9271 78.7779 66.7875 76.8107 65.6402ZM76.9099 84.776C76.9099 85.9592 76.2804 87.0613 75.267 87.6522L63.6397 94.4335C62.6282 95.0235 61.3717 95.0235 60.3602 94.4335L48.7329 87.6522C47.7196 87.0612 47.0901 85.9592 47.0901 84.776V71.2239C47.0901 70.0409 47.7196 68.9388 48.733 68.3478L60.3602 61.5665C61.3718 60.9765 62.6287 60.9767 63.6398 61.5665L75.2671 68.3477C76.2804 68.9388 76.9099 70.0408 76.9099 71.2239V84.776Z" fill="#D6DBDD"/>
<path d="M120.811 65.6402L109.183 58.8588C107.22 57.7137 104.78 57.7138 102.817 58.8588L91.1894 65.6402C89.2221 66.7874 88 68.927 88 71.2239V84.776C88 87.0729 89.2221 89.2125 91.1893 90.3598L102.817 97.1411C104.78 98.2865 107.22 98.2861 109.183 97.1411L120.811 90.3598C122.778 89.2125 124 87.0729 124 84.776V71.2239C124 68.9271 122.778 66.7875 120.811 65.6402ZM120.91 84.776C120.91 85.9592 120.28 87.0613 119.267 87.6522L107.64 94.4335C106.628 95.0235 105.372 95.0235 104.36 94.4335L92.7329 87.6522C91.7196 87.0612 91.0901 85.9592 91.0901 84.776V71.2239C91.0901 70.0409 91.7196 68.9388 92.733 68.3478L104.36 61.5665C105.372 60.9765 106.629 60.9767 107.64 61.5665L119.267 68.3477C120.28 68.9388 120.91 70.0408 120.91 71.2239V84.776Z" fill="#D8DDDF"/>
<path d="M164.811 65.6402L153.183 58.8588C151.22 57.7137 148.78 57.7138 146.817 58.8588L135.189 65.6402C133.222 66.7874 132 68.927 132 71.2239V84.776C132 87.0729 133.222 89.2125 135.189 90.3598L146.817 97.1411C148.78 98.2865 151.22 98.2861 153.183 97.1411L164.811 90.3598C166.778 89.2125 168 87.0729 168 84.776V71.2239C168 68.9271 166.778 66.7875 164.811 65.6402ZM164.91 84.776C164.91 85.9592 164.28 87.0613 163.267 87.6522L151.64 94.4335C150.628 95.0235 149.372 95.0235 148.36 94.4335L136.733 87.6522C135.72 87.0612 135.09 85.9592 135.09 84.776V71.2239C135.09 70.0409 135.72 68.9388 136.733 68.3478L148.36 61.5665C149.372 60.9765 150.629 60.9767 151.64 61.5665L163.267 68.3477C164.28 68.9388 164.91 70.0408 164.91 71.2239V84.776Z" fill="#445964" fill-opacity="0.2"/>
<path d="M208.811 65.6402L197.183 58.8588C195.22 57.7137 192.78 57.7138 190.817 58.8588L179.189 65.6402C177.222 66.7874 176 68.927 176 71.2239V84.776C176 87.0729 177.222 89.2125 179.189 90.3598L190.817 97.1411C192.78 98.2865 195.22 98.2861 197.183 97.1411L208.811 90.3598C210.778 89.2125 212 87.0729 212 84.776V71.2239C212 68.9271 210.778 66.7875 208.811 65.6402ZM208.91 84.776C208.91 85.9592 208.28 87.0613 207.267 87.6522L195.64 94.4335C194.628 95.0235 193.372 95.0235 192.36 94.4335L180.733 87.6522C179.72 87.0612 179.09 85.9592 179.09 84.776V71.2239C179.09 70.0409 179.72 68.9388 180.733 68.3478L192.36 61.5665C193.372 60.9765 194.629 60.9767 195.64 61.5665L207.267 68.3477C208.28 68.9388 208.91 70.0408 208.91 71.2239V84.776Z" fill="#445964" fill-opacity="0.2"/>
</svg>
