<svg width="40" height="41" viewBox="0 0 40 41" fill="none" xmlns="http://www.w3.org/2000/svg">
<path d="M20.0492 10.3381C14.3895 10.3381 9.8075 14.9251 9.8075 20.5798C9.8075 26.2396 14.3945 30.8215 20.0492 30.8215C25.7089 30.8215 30.2909 26.2346 30.2909 20.5798C30.2909 14.9201 25.7039 10.3381 20.0492 10.3381ZM20.0492 27.2275C16.3753 27.2275 13.4016 24.2521 13.4016 20.5798C13.4016 16.9076 16.377 13.9322 20.0492 13.9322C23.7214 13.9322 26.6968 16.9076 26.6968 20.5798C26.6985 24.2521 23.7231 27.2275 20.0492 27.2275Z" fill="#445964"/>
<path d="M28.2718 0.755018C24.5996 0.583713 15.5038 0.592029 11.8282 0.755018C8.59838 0.906365 5.7494 1.68638 3.45259 3.9832C-0.385975 7.82176 0.104656 12.9942 0.104656 20.5798C0.104656 28.3434 -0.327764 33.3961 3.45259 37.1764C7.30611 41.0283 12.5534 40.5244 20.0492 40.5244C27.7396 40.5244 30.394 40.5294 33.1133 39.4766C36.8105 38.0413 39.6012 34.7366 39.874 28.8008C40.047 25.1269 40.037 16.0328 39.874 12.3572C39.5447 5.35031 35.7843 1.10095 28.2718 0.755018ZM34.0846 34.6368C31.5682 37.1531 28.0772 36.9286 20.001 36.9286C11.6852 36.9286 8.35057 37.0517 5.91738 34.6119C3.11496 31.8227 3.62223 27.3439 3.62223 20.5532C3.62223 11.3643 2.67922 4.74659 11.9014 4.27425C14.0203 4.19941 14.644 4.17446 19.9777 4.17446L20.0525 4.22436C28.9155 4.22436 35.8691 3.29632 36.2866 12.5168C36.3814 14.6207 36.403 15.2527 36.403 20.5782C36.4013 28.7975 36.5577 32.152 34.0846 34.6368Z" fill="#445964"/>
<path d="M30.6967 12.3273C32.0185 12.3273 33.09 11.2558 33.09 9.93405C33.09 8.61228 32.0185 7.54077 30.6967 7.54077C29.3749 7.54077 28.3034 8.61228 28.3034 9.93405C28.3034 11.2558 29.3749 12.3273 30.6967 12.3273Z" fill="#445964"/>
</svg>
